<svg width="20" height="28" viewBox="0 0 20 28" fill="none" xmlns="http://www.w3.org/2000/svg">
<path d="M1.75 9.35156H18.5833V24.0006C18.5833 25.7955 17.1283 27.2506 15.3333 27.2506H5C3.20508 27.2506 1.75 25.7955 1.75 24.0006V9.35156Z" stroke="white" stroke-width="1.5"/>
<path d="M14.416 13.1123L14.416 24.2109V24.2109L14.416 13.1123C14.416 12.9749 14.416 12.8431 14.416 12.746C14.416 12.6488 14.416 12.5942 14.416 12.5942C14.416 12.5942 14.416 12.6488 14.416 12.746C14.416 12.8431 14.416 12.9749 14.416 13.1123Z" stroke="white" stroke-width="1.5"/>
<path d="M10.2383 13.1123L10.2383 24.2109V24.2109L10.2383 13.1123C10.2383 12.9749 10.2383 12.8431 10.2383 12.746C10.2383 12.6488 10.2383 12.5942 10.2383 12.5942C10.2383 12.5942 10.2383 12.6488 10.2383 12.746C10.2383 12.8431 10.2383 12.9749 10.2383 13.1123Z" stroke="white" stroke-width="1.5"/>
<path d="M6.06055 13.1123L6.06055 24.2109V24.2109L6.06055 13.1123C6.06055 12.9749 6.06055 12.8431 6.06055 12.746C6.06055 12.6488 6.06055 12.5942 6.06055 12.5942C6.06055 12.5942 6.06055 12.6488 6.06055 12.746C6.06055 12.8431 6.06055 12.9749 6.06055 13.1123Z" stroke="white" stroke-width="1.5"/>
<path d="M6.25 2C6.25 1.30964 6.80964 0.75 7.5 0.75H12.6667C13.357 0.75 13.9167 1.30964 13.9167 2V3.65886H6.25V2Z" stroke="white" stroke-width="1.5"/>
<path d="M0.75 5.10938C0.75 4.41902 1.30964 3.85938 2 3.85938H18C18.6904 3.85938 19.25 4.41902 19.25 5.10937V6.76824H0.75V5.10938Z" stroke="white" stroke-width="1.5"/>
</svg>
